<?xml version="1.0" encoding="utf-8"?>
<!-- Generator: Adobe Illustrator 16.0.3, SVG Export Plug-In . SVG Version: 6.00 Build 0)  -->
<!DOCTYPE svg PUBLIC "-//W3C//DTD SVG 1.1//EN" "http://www.w3.org/Graphics/SVG/1.1/DTD/svg11.dtd">
<svg version="1.1" id="Layer_1" xmlns="http://www.w3.org/2000/svg" xmlns:xlink="http://www.w3.org/1999/xlink" x="0px" y="0px"
	 width="108.5px" height="108.5px" viewBox="0 0 108.5 108.5" enable-background="new 0 0 108.5 108.5" xml:space="preserve">
<path fill="#2C858D" stroke="#2C858D" stroke-miterlimit="10" d="M54.25,0.696c-29.577,0-53.554,23.978-53.554,53.555
	c0,29.576,23.977,53.554,53.554,53.554c29.576,0,53.555-23.979,53.555-53.555C107.805,24.673,83.826,0.696,54.25,0.696z
	 M54.25,105.391c-28.244,0-51.14-22.896-51.14-51.141c0-28.245,22.895-51.141,51.14-51.141c28.244,0,51.141,22.896,51.141,51.141
	C105.391,82.494,82.494,105.391,54.25,105.391z"/>
<circle fill="#2C858D" stroke="#2C858D" stroke-miterlimit="10" cx="54.25" cy="54.25" r="47.234"/>
<g>
	
		<line fill="none" stroke="#FFFFFF" stroke-width="2" stroke-linecap="round" stroke-miterlimit="10" x1="79.695" y1="79.695" x2="28.803" y2="28.803"/>
	
		<line fill="none" stroke="#FFFFFF" stroke-width="2" stroke-linecap="round" stroke-miterlimit="10" x1="28.803" y1="79.695" x2="79.695" y2="28.803"/>
</g>
<text transform="matrix(1 0 0 1 46.394 34.5752)" fill="#FFFFFF" font-family="'HelveticaNeue-Bold'" font-size="17.0155">W</text>
<g>
	<g>
		<path fill="#FFFFFF" d="M43.852,79.107c-0.005,0.207,0.019,0.387,0.067,0.539c0.05,0.153,0.121,0.283,0.214,0.391
			c0.094,0.105,0.201,0.189,0.324,0.249c0.123,0.062,0.256,0.101,0.401,0.118c0.156,0.021,0.29,0.013,0.402-0.024
			c0.112-0.036,0.203-0.092,0.274-0.162c0.069-0.071,0.122-0.157,0.154-0.259c0.033-0.1,0.051-0.202,0.054-0.309
			c0.005-0.219-0.027-0.381-0.097-0.488c-0.067-0.109-0.143-0.188-0.225-0.237c-0.144-0.085-0.311-0.17-0.502-0.25
			s-0.427-0.185-0.706-0.31c-0.173-0.076-0.316-0.167-0.43-0.273c-0.114-0.107-0.203-0.225-0.269-0.348
			c-0.064-0.125-0.111-0.255-0.136-0.391c-0.026-0.137-0.037-0.272-0.033-0.414c0.006-0.268,0.055-0.496,0.145-0.691
			c0.09-0.193,0.207-0.355,0.351-0.484c0.144-0.131,0.307-0.227,0.486-0.289c0.181-0.063,0.362-0.098,0.545-0.098
			c0.213,0,0.414,0.037,0.599,0.114c0.187,0.075,0.35,0.192,0.49,0.347c0.139,0.155,0.249,0.35,0.328,0.578s0.115,0.496,0.108,0.797
			c-0.239-0.01-0.476-0.02-0.716-0.029c-0.011-0.363-0.095-0.625-0.251-0.779c-0.156-0.151-0.358-0.229-0.606-0.234
			c-0.084-0.001-0.169,0.01-0.259,0.028c-0.088,0.021-0.168,0.059-0.241,0.11c-0.074,0.051-0.136,0.121-0.186,0.211
			c-0.049,0.09-0.075,0.203-0.08,0.342c-0.004,0.191,0.036,0.346,0.124,0.461c0.088,0.113,0.202,0.203,0.346,0.269
			c0.015,0.007,0.075,0.03,0.178,0.075c0.104,0.045,0.222,0.095,0.349,0.148c0.127,0.055,0.254,0.107,0.376,0.16
			c0.123,0.053,0.211,0.092,0.265,0.115c0.132,0.066,0.248,0.152,0.344,0.262c0.096,0.108,0.178,0.229,0.242,0.365
			c0.063,0.137,0.111,0.28,0.14,0.432c0.03,0.153,0.043,0.308,0.04,0.457c-0.007,0.321-0.06,0.595-0.158,0.812
			c-0.098,0.219-0.225,0.389-0.382,0.516c-0.157,0.125-0.333,0.207-0.529,0.246c-0.197,0.039-0.396,0.043-0.598,0.014
			c-0.232-0.033-0.451-0.104-0.654-0.215c-0.204-0.108-0.38-0.252-0.526-0.432c-0.149-0.179-0.266-0.395-0.35-0.648
			c-0.085-0.254-0.126-0.543-0.123-0.869C43.377,79.057,43.615,79.081,43.852,79.107z"/>
		<path fill="#FFFFFF" d="M47.17,75.514c0.599,0.002,1.2,0.002,1.8,0.004c0.29,0,0.523,0.062,0.706,0.188
			c0.181,0.125,0.32,0.279,0.417,0.471c0.097,0.188,0.162,0.393,0.196,0.616c0.033,0.224,0.049,0.428,0.047,0.615
			c-0.002,0.187-0.023,0.39-0.062,0.608s-0.109,0.42-0.213,0.603c-0.102,0.187-0.246,0.335-0.432,0.448s-0.426,0.162-0.717,0.147
			c-0.365-0.021-0.729-0.04-1.094-0.062c-0.014,0.755-0.027,1.51-0.042,2.267c-0.24-0.022-0.48-0.049-0.721-0.074
			C47.093,79.4,47.132,77.457,47.17,75.514z M47.833,78.311c0.35,0.017,0.702,0.03,1.053,0.045c0.08,0.004,0.162-0.011,0.248-0.041
			c0.085-0.03,0.164-0.082,0.235-0.155c0.072-0.074,0.132-0.175,0.178-0.3c0.045-0.125,0.069-0.284,0.072-0.477
			c0.003-0.197-0.014-0.361-0.051-0.492c-0.037-0.131-0.086-0.234-0.149-0.312c-0.063-0.076-0.138-0.13-0.222-0.159
			c-0.083-0.027-0.173-0.044-0.267-0.045c-0.353-0.005-0.708-0.012-1.06-0.018C47.857,77.009,47.845,77.658,47.833,78.311z"/>
		<path fill="#FFFFFF" d="M50.982,75.52c0.238,0.002,0.475,0.002,0.714,0.002c-0.015,1.742-0.028,3.485-0.043,5.229
			c0.703,0.021,1.407,0.037,2.109,0.042c0,0.312-0.001,0.626-0.002,0.938c-0.948-0.008-1.896-0.033-2.843-0.08
			C50.94,79.605,50.961,77.562,50.982,75.52z"/>
		<path fill="#FFFFFF" d="M55.354,75.521c0.254,0,0.506,0,0.758,0c0.537,2.061,1.084,4.105,1.639,6.117
			c-0.259,0.014-0.518,0.024-0.777,0.036c-0.136-0.539-0.27-1.077-0.402-1.616c-0.551,0.012-1.103,0.021-1.652,0.025
			c-0.128,0.55-0.258,1.098-0.387,1.646c-0.251,0-0.502,0-0.753-0.002C54.313,79.664,54.839,77.589,55.354,75.521z M55.111,79.258
			c0.42-0.003,0.84-0.009,1.261-0.018c-0.213-0.881-0.423-1.768-0.632-2.652c-0.006,0-0.012,0-0.018,0
			C55.521,77.477,55.318,78.367,55.111,79.258z"/>
		<path fill="#FFFFFF" d="M58.596,79.564c0.004,0.231,0.031,0.431,0.088,0.592c0.059,0.16,0.135,0.291,0.231,0.39
			s0.21,0.169,0.336,0.208c0.126,0.04,0.263,0.055,0.409,0.043c0.158-0.012,0.292-0.048,0.402-0.109
			c0.111-0.06,0.201-0.137,0.268-0.224c0.066-0.09,0.115-0.188,0.146-0.3c0.027-0.107,0.041-0.221,0.039-0.33
			c-0.004-0.227-0.043-0.391-0.115-0.495s-0.151-0.175-0.236-0.216c-0.146-0.068-0.318-0.135-0.514-0.195
			c-0.195-0.06-0.436-0.141-0.721-0.242c-0.178-0.062-0.326-0.145-0.443-0.252c-0.119-0.107-0.215-0.229-0.284-0.363
			s-0.121-0.278-0.151-0.432c-0.029-0.152-0.048-0.309-0.05-0.47c-0.004-0.308,0.037-0.574,0.12-0.8
			c0.083-0.227,0.193-0.413,0.334-0.561s0.299-0.258,0.477-0.328s0.357-0.105,0.541-0.105c0.213,0,0.414,0.04,0.604,0.121
			c0.189,0.08,0.357,0.199,0.504,0.357c0.146,0.16,0.264,0.354,0.352,0.586c0.09,0.23,0.137,0.5,0.144,0.807
			c-0.238,0.008-0.478,0.016-0.718,0.021c-0.024-0.383-0.119-0.648-0.282-0.806s-0.368-0.231-0.617-0.229
			c-0.083,0.002-0.169,0.016-0.256,0.041c-0.089,0.024-0.167,0.069-0.239,0.129c-0.07,0.062-0.131,0.143-0.177,0.244
			c-0.048,0.104-0.067,0.229-0.065,0.384c0.004,0.216,0.051,0.383,0.143,0.502c0.092,0.12,0.211,0.208,0.355,0.266
			c0.018,0.007,0.076,0.026,0.186,0.065c0.104,0.039,0.223,0.08,0.354,0.127c0.131,0.046,0.26,0.09,0.385,0.132
			c0.127,0.042,0.217,0.073,0.27,0.094c0.137,0.056,0.254,0.132,0.354,0.23c0.103,0.1,0.188,0.215,0.258,0.346
			c0.068,0.13,0.121,0.271,0.158,0.422c0.034,0.151,0.055,0.304,0.059,0.455c0.006,0.327-0.034,0.61-0.125,0.853
			c-0.09,0.242-0.211,0.443-0.36,0.606c-0.151,0.163-0.325,0.289-0.521,0.376c-0.196,0.087-0.396,0.141-0.603,0.156
			c-0.233,0.021-0.458-0.005-0.668-0.075c-0.21-0.069-0.396-0.188-0.552-0.354c-0.156-0.168-0.283-0.388-0.379-0.658
			c-0.096-0.271-0.146-0.598-0.156-0.975C58.113,79.586,58.354,79.576,58.596,79.564z"/>
		<path fill="#FFFFFF" d="M61.758,75.512c0.238-0.002,0.477-0.002,0.715-0.002c0.018,0.756,0.033,1.51,0.051,2.266
			c0.619-0.031,1.238-0.068,1.856-0.107c-0.017-0.72-0.032-1.441-0.051-2.163c0.237-0.001,0.476-0.002,0.715-0.003
			c0.043,1.775,0.085,3.551,0.127,5.326c-0.235,0.039-0.476,0.077-0.712,0.115c-0.021-0.817-0.039-1.637-0.059-2.452
			c-0.617,0.054-1.237,0.103-1.859,0.146c0.02,0.856,0.038,1.713,0.059,2.569c-0.24,0.028-0.479,0.06-0.72,0.087
			C61.838,79.366,61.798,77.439,61.758,75.512z"/>
		<path fill="#FFFFFF" d="M37.461,81.352c0.227,0.092,0.457,0.18,0.686,0.266c0.226,1.172,0.446,2.39,0.662,3.646
			c0.004,0.002,0.007,0.004,0.011,0.006c0.27-0.989,0.546-2.03,0.83-3.121c0.234,0.078,0.47,0.156,0.707,0.229
			c0.236,1.299,0.468,2.641,0.698,4.016c0.003,0.002,0.007,0.004,0.011,0.004c0.271-1.147,0.547-2.34,0.825-3.566
			c0.238,0.064,0.476,0.13,0.716,0.189c-0.411,1.645-0.818,3.217-1.217,4.711c-0.233-0.112-0.466-0.229-0.697-0.35
			c-0.235-1.376-0.471-2.717-0.713-4.013c-0.004-0.001-0.008-0.003-0.011-0.004c-0.29,1.095-0.571,2.144-0.845,3.138
			c-0.229-0.138-0.456-0.277-0.682-0.423C38.123,84.423,37.798,82.843,37.461,81.352z"/>
		<path fill="#FFFFFF" d="M44.153,83.389c0.253,0.057,0.506,0.108,0.759,0.16c0.482,1.965,0.968,3.993,1.461,6.066
			c-0.26-0.071-0.519-0.146-0.777-0.227c-0.118-0.541-0.236-1.08-0.352-1.613c-0.548-0.158-1.091-0.33-1.629-0.518
			c-0.14,0.434-0.276,0.858-0.413,1.278c-0.244-0.099-0.485-0.199-0.726-0.306C43.028,86.717,43.589,85.096,44.153,83.389z
			 M43.825,86.602c0.414,0.133,0.829,0.258,1.247,0.371c-0.186-0.858-0.373-1.711-0.557-2.552c-0.005-0.002-0.012-0.003-0.018-0.004
			C44.272,85.161,44.048,85.891,43.825,86.602z"/>
		<path fill="#FFFFFF" d="M46.421,83.827c0.25,0.042,0.501,0.082,0.753,0.118c0.314,1.597,0.633,3.215,0.958,4.852
			c0.004,0.001,0.008,0.002,0.012,0.003c0.386-1.498,0.769-3.028,1.149-4.584c0.247,0.026,0.495,0.052,0.742,0.072
			c-0.502,1.985-1.009,3.935-1.524,5.833c-0.272-0.055-0.547-0.112-0.819-0.176C47.261,87.871,46.838,85.826,46.421,83.827z"/>
		<path fill="#FFFFFF" d="M50.448,84.324c1.003,0.078,2.011,0.128,3.017,0.144c0,0.312-0.002,0.627-0.003,0.938
			c-0.764-0.014-1.529-0.047-2.291-0.102c-0.005,0.536-0.01,1.072-0.015,1.607c0.708,0.061,1.419,0.098,2.13,0.113
			c-0.001,0.297-0.002,0.592-0.003,0.888c-0.713-0.021-1.426-0.062-2.136-0.122c-0.006,0.598-0.012,1.198-0.019,1.797
			c0.787,0.079,1.575,0.128,2.363,0.146c-0.001,0.313-0.001,0.627-0.002,0.938c-1.041-0.024-2.081-0.106-3.115-0.243
			C50.401,88.395,50.425,86.359,50.448,84.324z"/>
		<path fill="#FFFFFF" d="M55.781,84.45c0.617-0.021,1.232-0.052,1.849-0.097c0.3-0.021,0.541,0.021,0.729,0.131
			c0.188,0.108,0.334,0.25,0.438,0.426c0.103,0.178,0.177,0.372,0.218,0.589c0.039,0.216,0.062,0.418,0.063,0.603
			c0.003,0.187-0.015,0.391-0.047,0.611c-0.035,0.225-0.103,0.434-0.202,0.635c-0.1,0.199-0.242,0.373-0.43,0.519
			c-0.188,0.144-0.432,0.233-0.73,0.265c-0.376,0.037-0.752,0.069-1.127,0.094c0.005,0.791,0.012,1.58,0.018,2.369
			c-0.248,0.021-0.498,0.036-0.748,0.049C55.802,88.578,55.792,86.514,55.781,84.45z M56.536,87.342
			c0.36-0.021,0.722-0.052,1.084-0.084c0.082-0.008,0.166-0.033,0.253-0.076c0.086-0.041,0.165-0.105,0.236-0.189
			c0.072-0.085,0.129-0.193,0.174-0.326c0.044-0.133,0.064-0.296,0.062-0.489c-0.004-0.198-0.025-0.362-0.066-0.487
			c-0.041-0.129-0.094-0.227-0.162-0.297c-0.066-0.071-0.145-0.117-0.23-0.14c-0.085-0.021-0.179-0.028-0.275-0.021
			c-0.361,0.026-0.725,0.052-1.088,0.069C56.525,85.982,56.532,86.662,56.536,87.342z"/>
		<path fill="#FFFFFF" d="M61.451,83.785c0.308-0.047,0.587-0.012,0.835,0.105c0.248,0.119,0.459,0.297,0.635,0.53
			c0.175,0.236,0.31,0.521,0.409,0.854s0.15,0.699,0.161,1.097c0.01,0.401-0.027,0.794-0.109,1.176
			c-0.082,0.384-0.204,0.734-0.368,1.056c-0.162,0.317-0.365,0.595-0.607,0.823s-0.52,0.388-0.831,0.468
			c-0.312,0.082-0.595,0.067-0.847-0.039c-0.252-0.105-0.467-0.287-0.645-0.539c-0.176-0.25-0.314-0.561-0.414-0.926
			c-0.098-0.365-0.148-0.766-0.156-1.199c-0.007-0.426,0.033-0.838,0.119-1.229c0.085-0.396,0.213-0.744,0.379-1.052
			c0.168-0.307,0.371-0.559,0.614-0.758S61.145,83.832,61.451,83.785z M61.469,84.618c-0.221,0.037-0.41,0.13-0.568,0.282
			c-0.157,0.15-0.287,0.34-0.383,0.568c-0.099,0.229-0.168,0.483-0.213,0.764c-0.043,0.279-0.063,0.562-0.06,0.845
			c0.004,0.282,0.034,0.558,0.089,0.821s0.133,0.49,0.236,0.685c0.105,0.19,0.242,0.334,0.406,0.424
			c0.164,0.093,0.358,0.109,0.58,0.056c0.223-0.055,0.41-0.164,0.568-0.332c0.158-0.164,0.285-0.364,0.382-0.599
			c0.097-0.231,0.166-0.485,0.208-0.757c0.042-0.273,0.061-0.547,0.055-0.816c-0.006-0.271-0.035-0.531-0.088-0.781
			c-0.057-0.25-0.135-0.467-0.238-0.65c-0.104-0.188-0.237-0.325-0.4-0.421C61.88,84.609,61.689,84.582,61.469,84.618z"/>
		<path fill="#FFFFFF" d="M65.803,82.912c0.303-0.075,0.572-0.073,0.813,0.003c0.239,0.074,0.444,0.207,0.612,0.39
			c0.17,0.186,0.299,0.416,0.393,0.693c0.095,0.279,0.145,0.588,0.148,0.934c0.008,0.35-0.027,0.695-0.106,1.045
			c-0.08,0.351-0.198,0.681-0.354,0.992c-0.156,0.312-0.351,0.596-0.582,0.844c-0.23,0.25-0.496,0.444-0.795,0.574
			c-0.301,0.131-0.57,0.172-0.813,0.118c-0.242-0.053-0.451-0.182-0.625-0.382c-0.175-0.201-0.308-0.466-0.406-0.787
			c-0.099-0.32-0.149-0.684-0.161-1.083c-0.009-0.392,0.026-0.776,0.108-1.149c0.081-0.373,0.202-0.709,0.362-1.012
			c0.162-0.3,0.36-0.552,0.598-0.76C65.23,83.126,65.501,82.986,65.803,82.912z M65.82,83.659c-0.217,0.059-0.399,0.165-0.553,0.321
			c-0.154,0.154-0.279,0.343-0.373,0.562c-0.094,0.222-0.16,0.462-0.203,0.724c-0.041,0.26-0.06,0.521-0.053,0.779
			c0.006,0.26,0.036,0.505,0.09,0.737c0.054,0.231,0.131,0.431,0.234,0.588c0.102,0.159,0.232,0.267,0.393,0.319
			c0.158,0.057,0.346,0.037,0.558-0.051c0.214-0.088,0.396-0.222,0.548-0.397c0.152-0.175,0.271-0.377,0.365-0.599
			c0.092-0.225,0.158-0.461,0.199-0.709s0.061-0.49,0.055-0.729c-0.005-0.237-0.033-0.463-0.085-0.676
			c-0.052-0.215-0.128-0.395-0.228-0.545c-0.102-0.151-0.23-0.258-0.391-0.32C66.219,83.602,66.035,83.6,65.82,83.659z"/>
		<path fill="#FFFFFF" d="M68.354,82.303c0.229-0.074,0.461-0.15,0.688-0.228c0.021,1.293,0.039,2.587,0.06,3.881
			c0.649-0.356,1.287-0.737,1.914-1.146c0,0.207,0,0.412,0,0.617c-0.838,0.582-1.697,1.116-2.574,1.603
			C68.411,85.454,68.384,83.878,68.354,82.303z"/>
	</g>
</g>
<text transform="matrix(1 0 0 1 20.6885 59.9893)" fill="#FFFFFF" font-family="'HelveticaNeue-Bold'" font-size="17.0155">S</text>
<text transform="matrix(1 0 0 1 75.9551 59.9893)" fill="#FFFFFF" font-family="'HelveticaNeue-Bold'" font-size="17.0155">P</text>
</svg>
